<svg width="1em" height="1em" viewBox="0 0 16 16" fill="currentColor" xmlns="http://www.w3.org/2000/svg">
  <path d="M3.33333 12C2.59695 12 2 11.4031 2 10.6667V4.00001C2 3.26363 2.59695 2.66667 3.33333 2.66667H11.3333C12.0697 2.66667 12.6667 3.26363 12.6667 4.00001V7.04714C12.6667 7.22107 12.5071 7.35034 12.3333 7.342C12.2222 7.33667 12.1111 7.33381 12 7.33334C11.8889 7.33287 11.7778 7.3358 11.6667 7.342C11.4925 7.35174 11.3333 7.22161 11.3333 7.04721V4.66667C11.3333 4.29849 11.0349 4.00001 10.6667 4.00001H4C3.63181 4.00001 3.33333 4.29849 3.33333 4.66667V10C3.33333 10.3682 3.63181 10.6667 4 10.6667H7.7138C7.88773 10.6667 8.017 10.8263 8.00867 11C8.00333 11.1111 8.00047 11.2222 8 11.3333C7.99953 11.4445 8.00247 11.5555 8.00867 11.6667C8.0184 11.8408 7.88827 12 7.71387 12H4H3.33333ZM4.66667 6.00001C4.66667 6.36819 4.96515 6.66667 5.33333 6.66667H9.33333C9.70153 6.66667 10 6.36819 10 6.00001C10 5.63182 9.70153 5.33334 9.33333 5.33334H5.33333C4.96515 5.33334 4.66667 5.63182 4.66667 6.00001ZM4.66667 8.66667C4.66667 9.03487 4.96515 9.33334 5.33333 9.33334H7.33333C7.70153 9.33334 8 9.03487 8 8.66667C8 8.29847 7.70153 8.00001 7.33333 8.00001H5.33333C4.96515 8.00001 4.66667 8.29847 4.66667 8.66667Z"/>
  <path d="M11.3322 11.4429L10.7416 10.8466C10.4854 10.5879 10.0685 10.5844 9.80789 10.8387C9.54603 11.0942 9.54083 11.5136 9.79623 11.7756L11.5015 13.5245C11.7586 13.7882 12.1808 13.7935 12.4444 13.5363L14.1926 11.8303C14.4545 11.5747 14.4597 11.1553 14.2043 10.8933C13.9501 10.6327 13.5332 10.6258 13.2707 10.8781L12.6654 11.4595L12.6918 9.3418C12.6964 8.9736 12.4016 8.67146 12.0334 8.66686C11.6653 8.66226 11.3631 8.95706 11.3586 9.3252L11.3322 11.4429Z"/>
</svg>
